<svg xmlns="http://www.w3.org/2000/svg" width="114" height="90" viewBox="0 0 114 90">
  <g opacity=".1">
    <path d="M112.034483,0 L1.96551724,0 C0.880551724,0 0,0.874565217 0,1.95652174 L0,88.0434783 C0,89.1254348 0.880551724,90 1.96551724,90 L112.034483,90 C113.119448,90 114,89.1254348 114,88.0434783 L114,1.95652174 C114,0.874565217 113.119448,0 112.034483,0 Z M110.068966,86.0869565 L3.93103448,86.0869565 L3.93103448,3.91304348 L110.068966,3.91304348 L110.068966,86.0869565 Z"/>
    <path d="M31 43C37.0659005 43 42 38.0659005 42 32.0019752 42 25.9340995 37.0659005 21 31 21 24.9340995 21 20 25.9340995 20 32 20 38.0659005 24.9340995 43 31 43zM31 24.9504399C34.8872329 24.9504399 38.0495601 28.1147423 38.0495601 32 38.0495601 35.8852577 34.8872329 39.0495601 31 39.0495601 27.1127671 39.0495601 23.9504399 35.8872329 23.9504399 32.0019752 23.9504399 28.1167175 27.1127671 24.9504399 31 24.9504399zM13.9584677 78C14.4165068 78 14.8784608 77.8395602 15.2503728 77.5128109L47.1819618 49.4123714 67.3474267 69.5671289C68.1127827 70.3321527 69.3498797 70.3321527 70.1152357 69.5671289 70.8805916 68.8021051 70.8805916 67.5655449 70.1152357 66.8005211L60.7058598 57.3952285 78.6770434 37.7237468 100.719686 57.9215492C101.516361 58.6513545 102.755415 58.5965702 103.485537 57.8002411 104.215659 57.0039119 104.162809 55.7653951 103.364176 55.0355898L79.8749918 33.513181C79.4913352 33.1629527 78.9804454 32.9888169 78.4656408 33.0005564 77.9469213 33.0240354 77.4575633 33.2529555 77.1071829 33.6364457L57.9360935 54.6247075 48.6519933 45.3446361C47.9199137 44.6148308 46.7493693 44.5776557 45.9742262 45.2585465L12.6646051 74.5740238C11.8522708 75.2881765 11.7739735 76.5247367 12.4884362 77.3367185 12.8760078 77.7769496 13.416259 78 13.9584677 78z"/>
  </g>
</svg>
